<svg width="48" height="48" viewBox="0 0 48 48" fill="none" xmlns="http://www.w3.org/2000/svg">
<rect width="48" height="48" fill="#D6D6D6"/>
<g clip-path="url(#clip0)">
<path d="M37.3617 25.3592C37.0857 25.2902 36.8097 25.3592 36.5681 25.5318C35.671 26.2909 34.6359 26.912 33.4972 27.326C32.4275 27.7401 31.2544 27.9471 30.0122 27.9471C27.2173 27.9471 24.6639 26.8085 22.8352 24.9797C21.0064 23.1509 19.8678 20.5976 19.8678 17.8027C19.8678 16.6295 20.0748 15.4908 20.4198 14.4557C20.7994 13.3515 21.3515 12.3509 22.0761 11.4883C22.3866 11.1087 22.3176 10.5566 21.9381 10.2461C21.6965 10.0736 21.4205 10.0046 21.1444 10.0736C18.2115 10.8672 15.6582 12.6269 13.8294 14.9733C12.0697 17.2851 11 20.149 11 23.2889C11 27.05 12.5182 30.466 15.0026 32.9503C17.4869 35.4347 20.9029 36.9529 24.6639 36.9529C27.8384 36.9529 30.7713 35.8487 33.1176 34.02C35.4985 32.1567 37.2237 29.4998 37.9483 26.4634C38.1209 25.9458 37.8448 25.4628 37.3617 25.3592ZM32.0825 32.5708C30.0812 34.158 27.5278 35.1241 24.733 35.1241C21.455 35.1241 18.4876 33.7784 16.3483 31.6391C14.209 29.4998 12.8633 26.5324 12.8633 23.2544C12.8633 20.5286 13.7604 18.0442 15.3131 16.0429C16.3828 14.6627 17.7285 13.5241 19.2812 12.7304C19.1087 13.11 18.9361 13.4896 18.7981 13.9036C18.3495 15.1458 18.1425 16.457 18.1425 17.8372C18.1425 21.1151 19.4882 24.1171 21.6275 26.2564C23.7668 28.3957 26.7687 29.7414 30.0467 29.7414C31.4959 29.7414 32.8761 29.4998 34.1528 29.0168C34.6014 28.8442 35.0499 28.6717 35.464 28.4647C34.6359 30.0519 33.4972 31.4666 32.0825 32.5708Z" fill="white"/>
</g>
<defs>
<clipPath id="clip0">
<rect width="27" height="27" fill="white" transform="translate(11 10)"/>
</clipPath>
</defs>
</svg>
