<svg width="48" height="48" viewBox="0 0 48 48" fill="none" xmlns="http://www.w3.org/2000/svg">
<rect width="48" height="48" fill="#D6D6D6"/>
<g clip-path="url(#clip0)">
<path d="M24.9568 35.7974H15.2392C14.6432 35.7974 14.1595 35.3137 14.1595 34.7177V15.2824C14.1595 14.6864 14.6432 14.2027 15.2392 14.2027H24.9568C25.5539 14.2027 26.0365 13.7201 26.0365 13.123C26.0365 12.5259 25.5539 12.0432 24.9568 12.0432H15.2392C13.4533 12.0432 12 13.4966 12 15.2824V34.7176C12 36.5035 13.4533 37.9568 15.2392 37.9568H24.9568C25.5539 37.9568 26.0365 37.4742 26.0365 36.8771C26.0365 36.28 25.5539 35.7974 24.9568 35.7974Z" fill="white"/>
<path d="M37.6783 24.2313L31.1135 17.7529C30.6902 17.3339 30.0057 17.3394 29.5867 17.7637C29.1678 18.188 29.1721 18.8715 29.5975 19.2904L34.289 23.9203H21.7176C21.1205 23.9203 20.6379 24.4029 20.6379 25C20.6379 25.5971 21.1205 26.0798 21.7176 26.0798H34.289L29.5975 30.7097C29.1722 31.1286 29.1689 31.8121 29.5867 32.2364C29.7983 32.4502 30.0769 32.5581 30.3555 32.5581C30.6298 32.5581 30.904 32.4545 31.1135 32.2472L37.6783 25.7687C37.8834 25.5658 38 25.2893 38 25C38 24.7107 37.8845 24.4354 37.6783 24.2313Z" fill="white"/>
</g>
<defs>
<clipPath id="clip0">
<rect width="26" height="26" fill="white" transform="translate(12 12)"/>
</clipPath>
</defs>
</svg>
