<svg width="24" height="25" viewBox="0 0 24 25" fill="none" xmlns="http://www.w3.org/2000/svg">
<path d="M13.3259 12.5L23.7254 2.10046C24.0915 1.73432 24.0915 1.1407 23.7254 0.774605C23.3593 0.408512 22.7656 0.408465 22.3995 0.774605L12 11.1742L1.60046 0.774605C1.23432 0.408465 0.640697 0.408465 0.274605 0.774605C-0.091488 1.14074 -0.0915349 1.73437 0.274605 2.10046L10.6741 12.5L0.274605 22.8995C-0.0915349 23.2657 -0.0915349 23.8593 0.274605 24.2254C0.457651 24.4084 0.697603 24.4999 0.937556 24.4999C1.17751 24.4999 1.41741 24.4084 1.60051 24.2254L12 13.8259L22.3995 24.2254C22.5825 24.4084 22.8225 24.4999 23.0624 24.4999C23.3024 24.4999 23.5423 24.4084 23.7254 24.2254C24.0915 23.8593 24.0915 23.2656 23.7254 22.8995L13.3259 12.5Z" fill="black"/>
</svg>
